<?xml version="1.0" encoding="UTF-8" standalone="no"?>
<!-- Generator: Adobe Illustrator 19.2.0, SVG Export Plug-In . SVG Version: 6.00 Build 0)  -->

<svg
   version="1.1"
   id="Calque_1"
   x="0px"
   y="0px"
   viewBox="0 0 4960.6 3543.3"
   style="enable-background:new 0 0 4960.6 3543.3;"
   xml:space="preserve"
   sodipodi:docname="Logo drapeau Skeepskool noir - Le Porge école de surf.svg"
   inkscape:version="1.3.2 (091e20e, 2023-11-25)"
   xmlns:inkscape="http://www.inkscape.org/namespaces/inkscape"
   xmlns:sodipodi="http://sodipodi.sourceforge.net/DTD/sodipodi-0.dtd"
   xmlns="http://www.w3.org/2000/svg"
   xmlns:svg="http://www.w3.org/2000/svg"><defs
   id="defs7" /><sodipodi:namedview
   id="namedview7"
   pagecolor="#ffffff"
   bordercolor="#000000"
   borderopacity="0.25"
   inkscape:showpageshadow="2"
   inkscape:pageopacity="0.0"
   inkscape:pagecheckerboard="0"
   inkscape:deskcolor="#d1d1d1"
   inkscape:zoom="0.087253085"
   inkscape:cx="2687.5841"
   inkscape:cy="2017.1207"
   inkscape:window-width="1312"
   inkscape:window-height="449"
   inkscape:window-x="47"
   inkscape:window-y="25"
   inkscape:window-maximized="0"
   inkscape:current-layer="Calque_1" />
<style
   type="text/css"
   id="style1">
	.st0{fill:#FFFFFF;}
	.st1{fill:#E3051B;stroke:#E3051B;stroke-width:29.8066;stroke-miterlimit:10;}
	.st2{font-family:'Gotham-Ultra';}
	.st3{font-size:254.549px;}
	.st4{letter-spacing:11;}
	.st5{font-family:'FuturaStd-Bold';}
	.st6{font-size:117px;}
</style>
<g
   id="g6">
	<g
   id="g5">
		<g
   id="g4">
			<g
   id="g3">
				<path
   class="st0"
   d="M2727,1451.5l0.8-0.9c-0.2,0.2-0.3,0.3-0.5,0.5C2727.2,1451.2,2727,1451.4,2727,1451.5z"
   id="path1" />
				<path
   class="st0"
   d="M1400,2168.7l388.6-103.8l33.4,24.1l94-48.9l492-126.2l51.6,35.1l70.4-50.2l364.6-88.9l17.4,74l118-115.4      l111.7-18.8l249.3-64.1l77,64.1l92.4-107.7l23.3-5.6l19.9-4.8l31.9-7.7l45.2-10.9l-2.6-10.9l-2.6-10.9c-8.7,2.1-17.3,4-25.7,5.9      c-259.9,58.5-376.9,24.2-429.3-15.8c-42.8-32.7-44.5-70.3-44.5-70.7c-4-60.2,12.8-108.5,49.9-143.9      c99.4-94.6,312.3-70.9,314.4-70.6l4.9-21.8c-19.6-6.6-38.6-12-57.4-16.9l0.1-0.3c-22.5-7.6-44.3-13.8-65.8-19.3l0.2-0.7      c-66.9-22.7-130-36.4-189.2-43.1c-117.8-26.4-222.9-27.2-315.2-12.9c177.8-147.2,522.8-108.8,526.4-108.4l4.9-21.7      c-33.3-11.3-65.9-20.9-97.9-29.2v-0.2c-38.2-13-75.5-23.9-112.1-33.2l0.2-0.8c-45.1-15.3-89.1-28.1-132.1-38.8l4.5,1      c-520.8-176.7-918.3-63.3-1156.7,65.7c-253.4,137.1-390.1,317.1-396.6,325.7c-284.7,313.4-453.3,866.9-455,872.5l-6.4,21.2      l21.5-5.2l163.7-39.3l18.6,77.3L1400,2168.7z M3210.4,1350.5c-42.2,40.2-61.4,94.5-56.9,161.3c0,1.6,2.1,48.4,53.3,87.4      c22.4,17.1,55.6,33.3,104.2,42.8c-90.3-3.9-144.3-26.1-176.3-50.2c-47.2-35.6-49.5-76.7-49.6-78.4      c-4.4-65.8,14-118.6,54.7-157.4c64.8-61.6,173.5-77.3,251.2-79.8C3327.8,1284.7,3258.2,1305,3210.4,1350.5z M3124.4,1339.7      c-45.7,43.6-66.5,102.4-61.6,174.8c0,1.8,2.3,52.2,57.6,94.5c23.7,18.1,58.5,35.3,109.2,45.7c-17.5,0.2-34.3-0.1-50.3-0.7      c-69.8-9-114.8-29.3-143.6-51c-52.1-39.2-54.6-84.6-54.7-86.6v-1.1c-4.6-71.6,15.6-129.4,60.2-171.8      c65.9-62.7,173.3-82,256.5-86.7c12.9-0.3,26.2-0.3,39.7,0.3C3264.4,1264.9,3180.5,1286.4,3124.4,1339.7z M2992,1270.6      c82.9-33.6,185.3-54.7,306.6-43.3c9,1.8,18,3.5,27.1,5.7c-11.8,0.2-24.4,0.8-37.5,1.6c-9.5,0.4-18.7,1-27.9,1.8      c1.5,0.1,2.9,0.1,4.4,0.1c-68,6.7-145.8,24.1-206.3,64.9c-11.6,7.8-22.6,16.4-32.7,26c-3.3,3.2-6.2,6.6-9.3,9.9      c-43.1,46.3-62.7,106.7-57.8,180.4c0,1.9,2.4,56.7,62.6,102.6c8.6,6.5,18.4,13,29.8,19c-72.7-15.2-122.8-39.7-157-65.6      c-19.9-15.1-34.8-30.8-46-45.8c-0.8-4.6-0.8-7.2-0.8-7.2c-0.8-12.1-0.9-23.6-0.5-34.7c0.2-6.5,0.8-12.8,1.4-19      c0.7-7.2,1.7-14.1,3-20.9c9.6-53.7,34.2-94.9,67.8-126.3C2940.3,1299.7,2965.1,1283.5,2992,1270.6z M3351.9,1045.1      c-124.2-1.7-340,14.5-465.5,133.9c-3.2,3-5.9,6.4-8.9,9.5c-22.5,23.2-40.9,48.9-54.6,77.3c-2.2,4.7-4,9.7-6.1,14.5      c-2.5,5.9-5.2,11.7-7.3,17.9c-9.1,26.3-14.5,54.8-17,84.9c-0.4,5.1-0.9,10.2-1.1,15.4c-0.2,5.4-0.4,10.8-0.4,16.3      c0,10.8,0,21.6,0.8,32.7c0.1,1.5,1.1,23.6,14.5,53.6c1.7,3.7,3.5,7.5,5.6,11.5c1.9,3.5,3.9,7.1,6.1,10.7      c11.9,19.8,29.4,41.3,54.7,61.9c2.3,1.9,4.4,3.7,6.8,5.6c54.1,41.2,145.3,79.3,298.4,85.3c1.1,0.1,2.2,0.3,3.2,0.4      c-53.9,3.1-102.2,3.1-145.5,0.5c-129.1-7.6-213.4-37.5-268.3-72.2c-3.3-2.1-6.4-4.2-9.5-6.3c-3.2-2.2-6.3-4.4-9.3-6.6      c-0.7-0.5-1.5-1-2.1-1.5c-24.8-18.8-42.5-38.7-55.2-57.4c-2.4-3.5-4.6-6.9-6.6-10.3c-2.2-3.7-4.3-7.3-6.1-10.9      c-17.8-34.2-19.2-60.2-19.3-60.7c-1-14.4-1.3-28.4-1-42.1c0.1-5.9,0.8-11.4,1.2-17.2c0.3-5.2,0.5-10.4,1.1-15.5      c4.7-46.9,17.7-89.1,38.4-126.5c14.8-26.7,33.2-51.2,56-73c180.9-172.1,558.3-137.1,589.1-133.9      C3346.8,1043.7,3349.3,1044.4,3351.9,1045.1z M3253.8,1015.3c-15.2-0.3-31.8-0.4-49.5,0c-137.7,2.5-341.4,28.1-464.6,145.4      c-32.5,30.9-56.9,66.8-74.2,106.8c-17.1,39.6-26.8,83.5-28.8,131.6c-0.2,5.2-0.4,10.5-0.4,15.8s0.2,10.8,0.4,16.2      c0.2,7.1,0,13.9,0.5,21.2c0.1,2,1.7,37,27.3,80.3c2.1,3.5,4.2,7,6.6,10.5c2.2,3.3,4.5,6.6,7,9.9c13.3,18,30.9,36.7,54.3,54.5      c1.8,1.4,3.8,2.8,5.8,4.2c3,2.2,6.1,4.4,9.4,6.6c3.1,2.1,6.3,4.2,9.5,6.2c65.9,41.2,171.1,75.6,338.8,76.5      c-160.7,13.1-279.1,1.8-366.1-21.5c-3.8-1-7.4-2.1-11.1-3.1c-3.7-1.1-7.5-2.1-11-3.2c-31-9.6-57.6-20.7-80.4-32.7      c-3.4-1.8-6.7-3.6-10-5.4c-3.4-1.9-6.7-3.8-9.9-5.7c-11.1-6.7-21.3-13.6-30.5-20.6c-18.5-14.1-33.3-28.8-45.3-43.1      c-2.6-3.1-5.1-6.2-7.5-9.2c-2.5-3.3-4.7-6.5-6.9-9.7c-33.2-48.6-35.2-89.7-35.2-90.3c-1.1-16.9-1.3-33.2-0.9-49.1      c2.9-102.9,38.3-187.3,105.8-251.6c118.2-112.5,313-144.2,458.2-150.7c91.2-4.1,162.8,1.6,183.4,3.6      C3236.8,1010.8,3245.3,1013.1,3253.8,1015.3z M3093,945.3c-0.1,0-0.2,0-0.2-0.1c-0.5-0.2-1.1-0.5-2-0.7      C3091.7,944.8,3092.4,945.1,3093,945.3z M2274.5,1462.9c-2.1-30.9-1.4-60.3,1.4-88.5c0.7-7,1.5-13.8,2.5-20.5      c1.1-7.6,2.4-15,3.8-22.4c15.4-78.7,51.1-145.5,107.7-199.4c37.1-35.3,81.1-63.2,128.7-85.5C2738,944,3034.2,964.8,3092,970.1      c6.1,0.5,9.9,1,10.2,1l0.1-0.5c-0.9-0.2-1.7-0.4-2.6-0.6c0.9,0.2,1.8,0.4,2.6,0.6l0,0c3.7,0.9,7.4,1.8,11.2,2.8      c9.4,2.4,18.8,4.9,28.2,7.6c-17.4-0.5-36.7-0.6-57.4-0.3c-18.7,0.3-38.5,0.9-59.3,2.1c-105.6,6-233.2,26-340.9,79.4      c-28.5,14.1-55.5,30.8-80.4,50c-11.2,8.6-22,17.6-32.2,27.3c-77.5,73.7-114.9,171.9-112.5,291.7c0.2,8.8,0,17.4,0.6,26.4      c0.1,2.5,2.4,52.9,44.6,109.8c2.3,3.1,4.8,6.1,7.3,9.2c2.5,3,4.9,6.1,7.6,9.1c12.1,13.7,26.6,27.5,44.1,40.9      c10.1,7.7,21.4,15.3,33.8,22.7c3.2,1.9,6.6,3.8,9.9,5.7c3.3,1.8,6.6,3.6,10,5.4c23.3,12.1,50.2,23.4,81.4,33.2      c3.6,1.1,7.3,2.2,11,3.2c3.7,1.1,7.3,2.2,11,3.2c67.7,18.4,153.8,29.8,262.8,28.6c-108.2,10.5-200,11.4-277.4,5.4      c-4-0.3-7.9-0.7-11.8-1c-4-0.3-8-0.7-11.9-1.1c-33.5-3.3-64.2-8-92.3-13.7c-3.9-0.8-7.6-1.6-11.3-2.5c-3.8-0.8-7.7-1.7-11.4-2.5      c-38.2-9-71.3-20-100-32.3c-3.6-1.5-7-3.1-10.4-4.7c-3.4-1.5-6.7-3.1-10-4.6c-26.7-12.9-49.2-26.9-67.9-41.3      c-15.8-12-28.9-24.4-40.3-36.7C2277.6,1527.7,2274.5,1463.7,2274.5,1462.9z"
   id="path2" />
				<path
   class="st0"
   d="M2591.1,1449.3l0.8-0.9c-0.2,0.2-0.3,0.3-0.5,0.5C2591.3,1449,2591.1,1449.3,2591.1,1449.3z"
   id="path3" />
			</g>
			<path
   class="st1"
   d="M1024.7,2068c-9.3-25.1-17.1-50.9-23.2-76.8c-28.1-116.9-25.2-240.3,8.5-366.8     c49.5-185.9,163.6-369.3,330-530.6c160.2-155.3,364.2-284.4,590.2-373.3l8.4-3.3l141.6,352.8l-31.9,14.1     c-163.4,71-299.6,175-393.9,300.8c-51.9,69.4-88.2,142-107.9,215.7c-20.5,76.5-22.2,151.5-5,222.9c2.4,9.8,5.2,19.6,8.6,30     c1,2.1,1.5,4.3,2.6,8.3l2.8,8.3l-527.6,206.7L1024.7,2068z M2244.9,1364.9l9.5-2.9c8.8-2.7,18-5.2,27.2-7.4l4.7-1.1     c45.4-10.6,91-14.4,135.6-11.2c7.7,0.5,14.8,1.2,21.7,2.1c25.9,3.2,49.9,8.7,71.4,16.3c31.3,11,58.3,26.3,80.4,45.4l2.3,1.9     c8.9,7.9,17,16.6,24.1,25.8l3.7,4.9l6.8,9.5L2326.7,1568l-5-11.7L2244.9,1364.9z M2387.1,1835.2l-9.4,3     c-12.1,3.8-24.4,7.3-37.8,10.5l-2.2,0.5c-81.1,18.9-162.4,16.3-228.9-7.2c-32.4-11.4-60.3-27.3-82.7-47.2     c-13.8-12.3-25.5-26.1-34.6-40.8l-5.7-9.3l10.1-4c119.1-47.2,211.1-82,298.4-113l8.3-2.9L2387.1,1835.2z M2352.1,1604     l298.3-116.9l2.8,11.8c2.8,11.8,4.4,24.3,4.6,37.2c0.3,18.1-2,36.6-6.9,55c-2.3,8.5-5.4,17.7-9.6,28.2c-2.8,6.8-5.8,13.5-9,19.9     c-7.2,14.3-15.7,28.2-25.3,41.4c-12.1,16.6-26.1,32.7-41.7,47.8c-35.7,34.6-80.4,64.7-129.4,87.1l-8.7,4l-85-212.2L2352.1,1604z      M2622,1372.7c-6.8-5.8-14.3-11.4-22.2-16.8c-36.4-24.6-79.6-41.6-128.4-50.5c-7.1-1.3-14.8-2.5-22.7-3.5     c-7.4-0.9-14.8-1.6-22.3-2.2c-49.3-3.6-100.1,0.6-150.9,12.4l-3.6,0.8c-11.5,2.8-22.9,5.9-34.9,9.7l-8,2.5l-92.4-230.4l73.2-22.8     c12.1-3.4,24.7-6.6,37.3-9.6l6.8-1.6c59.1-13.8,119.4-22.3,179.2-25.3c61.3-3,121.2-0.1,178.1,8.6c11.8,1.8,23.5,3.9,34.8,6.2     c33.8,6.8,65.9,15.5,95.5,26c2.5,0.9,11.9,4.5,11.9,4.5c8.7,3.2,17.3,6.7,25.7,10.3c27.4,11.7,53.3,25.1,77,39.8     c23.6,14.7,45.2,30.8,64.3,47.7c15.9,14.1,30.9,29.6,44.6,46.2c12.7,15.3,24.1,31.3,34,47.7c3.4,5.7,6.8,11.5,9.9,17.4l4.8,9     l-340.9,133.5l-4-6.4c-11.2-18-25.4-34.7-42.3-49.8L2622,1372.7z M2282.9,1575.7l3,8.3l-314.8,123.3l-2.1-10.8     c-5.2-27.1-3.9-55.6,3.9-84.9c12.6-47.7,42.2-95.2,85.6-137.3c37.8-36.5,85.2-67.9,137.3-90.7l8.6-3.8L2282.9,1575.7z      M2180.3,1343.7c-81.1,35.1-148.6,86.7-195.4,149.1c-25.9,34.5-44,70.8-54,107.9c-10.3,38.8-11.2,76.7-2.5,112.8l2.5,9.5     l-335.4,131.3l-3-9.2c-24.1-75.1-25.6-153.7-4.2-233.7c27.5-103.1,90.9-205,183.5-294.7c86-83.5,195.3-153.6,316-203l8.4-3.4     l3.5,8.5l88.8,221.4L2180.3,1343.7z M3650.5,1609.2c1.9-6.5,3.8-13.2,5.6-20c35.6-133.4,38.5-263.8,8.8-387.6     c-6.9-28.6-15.5-56.9-25.7-84.2c-42.6-114.2-113-215.5-209.2-300.8c-138-122.4-325.4-207.8-541.8-247.1     c-217.4-39.4-458-30.9-695.9,24.5l-11.9,2.8c-73.5,17.6-147.1,39.9-218.7,66c-333,121.5-618.8,325-804.6,573.3     c-90.8,121.4-154.3,248.3-188.7,377.2c-35.6,133.3-38.5,263.7-8.8,387.5c6.8,28.4,15.5,56.7,25.7,84.2     c20.1,53.8,46.3,104.7,78.5,152.4l45.1-10.8c-10.2-14.5-19.9-29.3-28.9-44.3c-2.7-4.5-5.2-9-8.6-15     c-9.1-16.1-16.1-29.5-22.2-42.3l-4.2-8.8l527.9-206.7l3.8,7.3c23.9,46.7,57,89.2,98,126.2l2.6,2.4c12.4,11,25.6,21.5,39.4,31.5     l51.8-16.7c-16.4-10.4-31.9-21.5-46.5-33.3c-5.4-4.3-10.6-8.7-15.7-13.2c-36.8-32.7-66.5-70-88.3-111.1l-4.8-9l9.5-3.7     c68.8-26.9,140.4-55.7,204-81.2l119.6-48l3.9,7c12.1,21.7,28.1,41.5,47.6,58.7c39.8,35.3,93.5,59.9,155.1,71     c35.3,6.3,73,8.2,112.3,5.6c28.5-1.9,56.8-6.2,84.2-12.5l2.4-0.6c15.1-3.6,29.8-7.7,43.6-12.3l8.1-2.6l15.5,38.6l44.4,13.1     l5.2-5.4l-24.8-61.9l8-3.6c77.5-34.9,142.4-85.2,187.7-145.7c4.6-6.1,9.2-12.8,14.1-20.4c7.7-11.8,14.5-23.8,20.3-35.8     c3.3-6.7,6.3-13.6,9.1-20.7c4.1-10.5,7.6-20.9,10.3-31c3.1-11.7,5.4-24,6.8-36.3c1.1-9.1,1.6-18.4,1.5-27.6     c-0.1-17-2-33.5-5.8-49.1c-0.8-3.3-1.6-6.5-2.6-9.7l-2.3-8l340-133.1l3.1,9c1.2,3.5,2.3,7.1,3.6,11.5c2,6.5,3.8,13.1,5.4,19.7     c1.6,6.7,2.9,13.4,4.1,20.2c6.2,33.9,7.8,68.9,4.9,103.8c-0.9,9.9-2.2,20.8-4.3,33.3c-2.6,15.9-5.7,30.7-9.5,44.8l-0.7,2.4     c-3.3,12.2-7,24.3-11.1,35.9c-1.3,3.7-2.7,7.4-4.8,12.8c-2.7,7.2-5.6,14.4-8.8,21.6l-1.5,3.6c-9.9,22.5-21.9,45.6-35.8,68.6     c-18.7,31.1-40.5,61.3-65.2,90.6l9.7,53.8c18.6-20.2,35.9-41,51.9-62.4c21.4-28.5,40.6-58.6,57.1-89.3c10.8-20,20.4-40.5,28.7-61     c3-7.4,5.8-14.8,8.4-22.2l3-8.5c3.4-10.1,6.5-20.1,9.1-29.5l1.6-5.3c2-7.4,3.9-15.4,6-25.3c1.7-7.6,3.2-15.8,4.6-25     c9.5-59.3,7.6-117.4-5.6-172.6c-1.8-7.5-4.1-15.7-7.2-25.9c0,0-3-9.9-3.8-12.2l-2.8-8.3l522.1-204.5l5.5,14.3     c9.6,25.8,17.7,52.4,24.1,79.2c25.7,107,25.4,219.8-0.8,335.4c-1.9,8.1-3.8,16.2-5.9,24.3l-1.8,7.2l-10.5,39.3L3650.5,1609.2z      M2547,2232.8l106.3,264.9l-8.9,3.2c-68.8,25-139.5,46.2-210.2,63.2l-12.9,3.1c-308.8,71.9-619.4,62-874.7-27.9     c-31.6-11.1-62.1-23.4-91.4-36.7l-65.4,15.9c102.7,52.8,219.5,91.6,346.3,114.6c217.3,39.4,457.8,30.9,695.5-24.4l12.2-2.9     c73.4-17.6,147-39.8,218.9-66c187.1-68.2,359.3-162.4,507.2-275.9l-110.2,26.5c-109.5,74.1-230.1,137.9-357.8,188.7l-8.4,3.4     l-102.7-256L2547,2232.8z M3061.6,1280.1l-9.2,3.5l-2.6-8.4l-6.3-11.8c-2.8-5-5.7-10-8.7-14.9c-8.4-13.7-17.9-27.4-28.3-40.7     c-17.1-21.9-36.4-42.3-57.2-60.8c-5.6-5-11.9-10.2-19.6-16.4c-6.3-5.1-13.1-10.2-20.2-15.3c-6.5-4.7-13.2-9.3-20-13.8     c-21.2-13.9-44.3-26.8-68.5-38.4c-9.3-4.4-18-8.4-26.7-12.1c-29.7-12.5-61.3-23.3-94.1-32c-13.4-3.5-25.6-6.5-37.3-8.9     c-7.8-1.6-15.6-3.2-23.5-4.6c-42.8-7.8-88.1-12.3-134.6-13.5c-86.1-2.2-174.3,7.1-262.4,27.6l-7,1.7c-17,4.1-34,8.6-50.7,13.5     l-3.9,1.1c-17,5-34.4,10.6-51.9,16.7l-8.2,2.9L1979,702l8.9-3.2c66.4-23.7,134-43.9,201.1-60l13.8-3.2     c308.8-71.9,619.5-62.1,874.8,27.8c126.3,44.6,235,106.8,323,185c72.6,64.4,130,138.9,170.7,221.5l4.4,8.9L3061.6,1280.1z"
   id="path4" />
		</g>
	</g>
</g>
<text
   transform="translate(1777.3112,2998.6843)"
   class="st0 st2 st3 st4"
   id="text6"><tspan
     style="fill:#464646;fill-opacity:1"
     id="tspan7" /></text>
<path
   class="st0"
   d="M4101.1,1743.6l-101.8,24.7c0-4.8,0.3-10.9,0.7-18.3l11.6-181.2c0.4-4.8,0.1-9.5-1-14.1  c-5.7-23.6-28.7-37.6-52.3-31.8l-113.2,27.4c-19.4,4.7-33.1,20.4-35.5,40.3c-22.3-15.3-49.2-19.8-77.6-12.9l-152.8,37  c-40.3,9.8-73.3,38-98.1,84.1c-3.9,7.2-7.4,14.6-10.7,22.2c-8.3-15.8-18.9-28.5-31.9-38c-22.9-16.8-50.6-21.9-80.1-14.7l-152.8,37  c-23.1,5.6-43.8,17.2-61.9,34.8c-10.3-9.6-25.2-13.7-40.8-9.9l-72,17.4c-8.7,2.1-16.8,7-22.8,13.6l-82.2,86.8  c1.3-25.1,1-26.6,0.1-30.5c-5.8-23.6-28.6-37.6-52-31.9l-107.6,26.1c-7.6,1.9-14.4,5.4-19.9,10.3c-6.9-1.8-14.3-2-21.8-0.2  l-181.6,44.1c-14.9,3.6-29.4,9.5-43.3,17.5l-0.3,0.2l-0.3,0.2c-15.5,9.5-29.1,21.2-40.5,34.8c-4.6-3.6-9.2-6.4-13.4-8.6  c-18.3-9-39.4-11-61.3-5.6l-255.3,61.9c-5.2,1.3-10,3.3-14.3,6c-4.9-0.5-10-0.2-15.1,1l-201.2,48.8c-27.1,6.6-50.8,21.3-70.8,43.9  c-10-13.4-27.2-20.1-44.9-15.9l-201.2,48.8c-23.2,5.6-44,17.3-62,34.7c-10.3-9.5-25.2-13.6-40.7-9.8l-71.9,17.4  c-8.8,2.1-16.7,6.8-22.8,13.5l-82.2,86.9c1.4-25.1,1-26.6,0.1-30.4c-5.7-23.6-28.5-37.6-52-31.9l-107.6,26.1  c-7.6,1.8-14.3,5.4-19.8,10.3c-6.8-1.9-14.3-2-21.8-0.2l-181.6,44c-14.8,3.6-29.4,9.5-43.3,17.6l-0.3,0.2l-0.3,0.2  c-21.2,13-38.8,30-52.2,50.5c-18.9,29.3-24.9,61.5-17.1,93.4c6.6,27.4,22.9,51.5,48.6,71.9l35.5,28.7l-54.5,13.2  c-20.3,4.9-34.3,21.8-35.7,42.9l-2.6,42.6l-0.1,1.3l-0.3,4.6l0.2,0.6l-0.1,1l1.1,4.6l0.3,1.3c5.7,23.6,28.8,37.6,52.5,31.8  l171.2-41.5c31.4-7.6,59.1-19.9,82.2-36.5c10,7.8,23.3,10.9,36.7,7.7l107.3-26c20.4-5,34.6-22.3,35.5-43.3l4.5-70.7l51,65.1  c10.3,13.8,27.8,20,44.8,15.9l113.5-27.5c13.1-3.2,23.4-10.9,29.6-21.1c16.4,5.2,34.2,5.6,52.6,1.2l201.2-48.8  c20.4-5,34.5-21.8,36.1-42.8v-0.2c23.1,16.9,50.5,22.1,79.6,15l201.2-48.8c5.3-1.3,10.2-3.3,14.5-6.1c4.9,0.5,10,0.2,15.2-1.1  l106.7-25.8c20.1-4.9,34.1-21.6,35.7-42.5l6.6-102.7l188-45.1l-4.7,1.1c-20.2,4.9-34.2,21.7-35.8,42.9l-2.6,42.8l-0.1,1.2l-0.3,4.6  l0.2,0.6l-0.1,1l1.1,4.5l0.3,1.4c5.7,23.6,28.8,37.6,52.5,31.8l171.2-41.5c31.4-7.6,59.1-19.9,82.3-36.4c9.9,7.7,23.2,10.8,36.7,7.5  l107.2-26c20.5-4.9,34.7-22.3,35.5-43.3l4.5-70.3v-0.2l51.2,65.4c10.5,13.8,27.5,19.8,44.6,15.6l113.6-27.6  c13.2-3.2,23.5-11,29.7-21.2c16.4,5.2,34.3,5.7,52.8,1.2l152.8-37c39.9-9.7,72.8-38,97.8-84.4c4-7.4,7.7-15.1,11.1-23  c8.2,15.7,18.8,28.5,31.5,38.3c23.2,17.4,51,22.8,80.5,15.6l152.8-37.1c39.9-9.7,72.8-38.1,97.7-84.4l0.2-0.4  c6.4,8.6,13.8,15.9,22.2,21.8c22.6,16.6,49.9,21.8,78.9,14.8l186.7-45.2c20.1-4.9,34.1-21.6,35.8-42.6v-0.2v-0.3l2.4-40.8  c0.6-5.1,0.3-10.2-0.9-15.1C4147.7,1751.9,4124.7,1737.9,4101.1,1743.6z M4106.1,1836.7l-186.6,45.2c-17.6,4.3-33.2,1.5-46.8-8.5  c-14.5-10.3-24.6-27.8-30.7-52.5c-4.7-19.3-6.2-41-4.5-65.1l10-159.7c0.4-4,2.2-6.4,5.8-7.3l113.3-27.4c2.5-0.6,4.1,0.4,4.8,2.9v1.8  l-11.6,181.8c-1.5,22.5-1.1,38.4,1.1,47.4c3.5,14.5,12.6,19.9,27.4,16.3l121-29.4c2.6-0.6,4.2,0.4,4.8,2.9l0.1,1.9l-2.6,42.4  C4111.7,1833.4,4109.7,1835.8,4106.1,1836.7 M3698.6,1703.3c-3.5-14.6-12.6-20.2-27.3-16.7l-26.2,6.4c-13.4,3.3-22.9,12.8-28.3,28.8  c-3.4,10.1-6,26.8-7.6,50.3l-3.1,49.7c-1.9,27-1.3,46.2,1.4,57.5c3.8,15.5,11.9,21.8,24.4,18.7l26.2-6.3c13.9-3.4,23.9-14.9,30-34.6  c4-12.9,6.9-32.1,8.5-57.2l3.4-49.7C3701.2,1728,3700.8,1712.4,3698.6,1703.3 M3720.5,1930.1l-152.8,37c-18.1,4.4-33.9,1.5-47.4-8.8  c-14.7-11.1-25.1-29.4-31.2-54.6c-4.9-20.4-6.6-44-4.9-70.9c2.7-43.6,12.9-82,30.6-115.2c19.4-35.9,43.6-57.4,72.8-64.4l152.8-37.1  c18.2-4.4,34.1-1.7,47.7,8.3c14.5,10.6,24.8,28.6,30.9,53.8c5,20.7,6.7,44.8,4.9,72.3c-2.6,43-13,81.2-31,114.8  C3773.4,1901.6,3749.2,1923.2,3720.5,1930.1 M3325,1793.9c-3.6-14.7-12.7-20.3-27.3-16.7l-26.2,6.3c-13.5,3.2-22.9,12.9-28.2,28.8  c-3.4,10.1-5.9,26.9-7.6,50.3l-3.1,49.6c-1.9,27-1.4,46.2,1.3,57.5c3.8,15.6,11.9,21.8,24.4,18.8l26.1-6.4  c13.9-3.4,23.9-14.9,30-34.6c4-12.9,6.8-32,8.5-57.2l3.3-49.7C3327.6,1818.5,3327.2,1802.9,3325,1793.9 M3346.9,2020.7l-152.8,37  c-18,4.4-33.8,1.5-47.4-8.8c-14.7-11.1-25-29.4-31.2-54.6c-4.9-20.4-6.5-44-4.9-70.9c2.6-43.6,12.9-82,30.6-115.1  c19.3-36,43.6-57.5,72.7-64.5l152.8-37c18.2-4.4,34.1-1.7,47.6,8.2c14.5,10.6,24.8,28.5,30.9,53.8c5,20.6,6.6,44.8,4.9,72.2  c-2.7,43-13,81.2-31,114.8C3399.8,1992.1,3375.6,2013.7,3346.9,2020.7 M2636,2193l-171.2,41.5c-2.8,0.7-4.4-0.2-5.1-2.8l-0.1-1.8  l2.6-42.4c0.3-4,2.2-6.5,5.8-7.4l132-32l-97.8-78.8c-18.7-14.9-30.3-31.8-34.9-50.4c-5.2-21.5-1.3-42.4,11.8-62.7  c10.3-15.7,23.5-28.5,39.8-38.5c10.5-6,21.3-10.5,32.7-13.2l181.6-44.1c2.6-0.6,4.2,0.3,4.8,2.9l0.1,1.8l-2.5,42.8  c-0.3,3.7-2.3,6.1-5.9,6.9l-132.8,32.2l97.2,80.3c24.2,19.9,38.7,40.2,43.7,60.9c6.9,28.6-3.9,53.3-32.4,74  C2686,2176.2,2663,2186.4,2636,2193 M2374.4,2115.3l-113.3,27.4c-2.5,0.6-4.2-0.3-4.8-2.8c-0.2-0.9-0.3-1.5-0.1-1.8l2.5-42.5  c0.1-3.9,2.1-6.3,5.8-7.2l38.3-9.3c7.8-1.9,14.6-6.1,20.5-12.7c6.8-7.3,10.5-15.9,11.1-25.6c0.1-3.9-0.2-7.1-0.8-9.7  c-3.1-12.8-12.1-17.3-26.9-13.7l-61,14.8l-16.3,253.6c-0.3,3.9-2.2,6.3-5.8,7.2l-106.7,25.9c-2.8,0.6-4.5-0.2-5.1-2.8  c-0.1-0.6,6.3-101.8,19.2-303.8c0.3-4,2.2-6.4,5.8-7.2l255.3-61.9c13.1-3.2,24.5-2.3,34.3,2.5c12.5,6.4,20.7,18,24.9,35.1  c5.3,21.9,3.3,44.6-6.1,68.2C2431.1,2085.1,2407.4,2107.3,2374.4,2115.3 M1953.8,2217.3c-2.4,0.5-3.9-0.4-4.5-3  c-0.1-0.6,0.7-15.4,2.5-44.4c0.3-3.9,2.1-6.3,5.5-7.1l143.3-34.8c2.6-0.6,4.2,0.5,4.9,3.3c0,0.3-0.9,15-2.9,44  c-0.1,3.9-1.9,6.3-5.5,7.2L1953.8,2217.3z M2087.5,2325.9l-201.3,48.8c-18,4.4-33.8,1.5-47.4-8.7c-14.5-11.2-24.8-29.4-30.9-54.7  c-5.1-21.2-6.8-44.8-4.9-70.8c3-44,13.2-82.4,30.6-115.1c19-35.9,43.3-57.3,72.8-64.5l201.2-48.8c2.6-0.6,4.2,0.3,4.8,2.9l0.1,1.8  l-2.6,42.9c-0.1,3.6-2.1,6-5.9,6.9l-135.3,32.8c-14.1,3.4-23.9,12.8-29.7,28.2c-4,10.3-6.8,27.4-8.3,51.4l-3.1,49.6  c-1.8,26.1-1.4,44.9,1.3,56.2c4,16.4,12.8,22.9,26.5,19.6l135.2-32.8c2.8-0.7,4.5,0.3,5.1,2.9l0.1,1.8l-2.6,42.4  C2093.3,2322.6,2091.2,2325,2087.5,2325.9 M1637,2293.8c-2.4,0.6-3.9-0.4-4.5-2.9c-0.1-0.6,0.7-15.4,2.5-44.4  c0.3-3.9,2.1-6.3,5.5-7.1l143.2-34.7c2.6-0.6,4.2,0.5,4.9,3.3c0,0.3-0.9,15-2.9,44c-0.1,3.9-1.9,6.4-5.5,7.2L1637,2293.8z   M1770.7,2402.7l-201.3,48.8c-18,4.3-33.9,1.5-47.4-8.8c-14.5-11.2-24.8-29.4-30.9-54.7c-5.1-21.3-6.8-44.9-4.9-70.9  c3-43.9,13.2-82.4,30.6-115.1c19-35.8,43.3-57.3,72.8-64.5l201.2-48.7c2.6-0.7,4.2,0.3,4.8,2.9l0.1,1.8l-2.5,42.9  c-0.2,3.7-2.1,6-5.9,6.9l-135.3,32.8c-14,3.4-23.9,12.8-29.6,28.2c-4,10.2-6.8,27.4-8.3,51.4l-3.1,49.6c-1.9,26.1-1.4,44.9,1.3,56.2  c4,16.4,12.8,22.9,26.5,19.6l135.3-32.8c2.8-0.6,4.4,0.3,5.1,2.9l0.2,1.8l-2.7,42.5C1776.4,2399.3,1774.4,2401.8,1770.7,2402.7   M1487.3,2471.4l-113.6,27.5c-1.8,0.4-3.1,0-4-1.2l-98.5-125.7l-1-3l2.5-37.6c0.1-2.1,0.9-3.8,2.2-5l136.8-144.4  c1-1.1,2.1-1.8,3.3-2.1l71.9-17.5c3.2-0.8,4.9,0,5.6,2.3c0.6,2.4-0.3,4.9-2.7,7.6L1365,2304.2c85,105.2,127.7,158.2,127.9,159.1  C1493.9,2467.5,1492,2470.2,1487.3,2471.4 M1237.9,2531.8l-107.3,26c-2.6,0.7-4.2-0.3-4.8-2.9c-0.1-0.5,6.3-101.8,19.2-303.8  c0.3-4,2.1-6.4,5.5-7.2l107.6-26.1c2.4-0.6,3.9,0.4,4.5,2.9c0.2,0.5-6.3,101.9-19.2,303.9  C1243.3,2528.6,1241.5,2530.9,1237.9,2531.8 M1011.7,2586.6l-171.2,41.5c-2.8,0.6-4.5-0.2-5.1-2.9l-0.1-1.7l2.6-42.5  c0.3-4,2.2-6.4,5.7-7.3l132-32l-97.8-78.8c-18.7-15-30.3-31.8-34.9-50.5c-5.2-21.6-1.3-42.5,11.9-62.7  c10.2-15.7,23.5-28.5,39.7-38.5c10.5-6.1,21.4-10.6,32.7-13.3l181.6-44c2.6-0.6,4.1,0.3,4.8,2.9l0.1,1.8l-2.5,42.9  c-0.4,3.7-2.3,6-5.9,6.9l-132.8,32.2l97.2,80.3c24.2,20,38.7,40.3,43.7,61c7,28.5-3.8,53.3-32.4,74  C1061.7,2569.8,1038.7,2580.1,1011.7,2586.6 M3111.6,2077.7l-113.5,27.5c-1.8,0.4-3.1,0-4.1-1.2l-98.4-125.7l-1-2.9l2.6-37.6  c0.1-2.1,0.8-3.8,2.2-5.1l136.8-144.4c1-1.1,2.1-1.8,3.2-2.1l71.9-17.4c3.2-0.8,5,0,5.6,2.3c0.5,2.3-0.3,4.8-2.7,7.6l-124.9,131.9  c85,105.2,127.7,158.2,127.9,159.1C3118.2,2073.9,3116.3,2076.5,3111.6,2077.7 M2862.2,2138.1l-107.3,26c-2.6,0.6-4.2-0.3-4.8-2.9  c-0.1-0.5,6.3-101.8,19.2-303.8c0.3-4,2.1-6.4,5.5-7.2l107.5-26.1c2.4-0.6,3.9,0.5,4.6,2.9c0.2,0.6-6.3,101.9-19.2,303.9  C2867.6,2134.9,2865.8,2137.3,2862.2,2138.1"
   id="path6" />
<text
   transform="matrix(0.9722 -0.2341 0.2341 0.9722 2677.708 2347.7886)"
   class="st0 st5 st6"
   id="text7">LE PORGE ECOLE DE SURF</text>
</svg>
