<svg id="Calque_1" data-name="Calque 1" xmlns="http://www.w3.org/2000/svg" viewBox="0 0 283.46 31.05"><defs><style>.cls-1{fill:#e3051b;}.cls-2{fill:#fff;}</style></defs><title>Logo Skeepskool TEXTE site Web 2026 1 rouge-blanc</title><path class="cls-1" d="M279.92,20.32h-8.57c0.09-.38.23-0.86,0.41-1.44l4.41-14.19a3.59,3.59,0,0,0,.19-1.14A3.51,3.51,0,0,0,272.81,0h-9.53a3.81,3.81,0,0,0-3.6,2.52A7.73,7.73,0,0,0,253.75,0H240.88c-3.39,0-6.56,1.61-9.43,4.8-0.45.5-.87,1-1.28,1.56a8.92,8.92,0,0,0-1.81-3.64A7.71,7.71,0,0,0,222.28,0H209.41a10.86,10.86,0,0,0-5.6,1.58A3.58,3.58,0,0,0,200.76,0H194.7a3.69,3.69,0,0,0-2.08.65L184.41,6A8.52,8.52,0,0,0,185,3.55,3.49,3.49,0,0,0,181.49,0h-9.06a3.78,3.78,0,0,0-1.78.44A3.6,3.6,0,0,0,168.92,0H153.63a13.26,13.26,0,0,0-3.78.56h-0.06a13.62,13.62,0,0,0-3.89,2,7,7,0,0,0-.9-0.94A7.27,7.27,0,0,0,140.22,0h-21.5a3.86,3.86,0,0,0-1.25.2A3.68,3.68,0,0,0,116.24,0H99.3a11.16,11.16,0,0,0-6.48,2.13A3.51,3.51,0,0,0,89.56,0H72.62A10.91,10.91,0,0,0,67,1.59,3.59,3.59,0,0,0,64,0H57.91a3.7,3.7,0,0,0-2.08.64L47.62,6a8.27,8.27,0,0,0,.6-2.42A3.49,3.49,0,0,0,44.69,0H35.63a3.79,3.79,0,0,0-1.78.44A3.56,3.56,0,0,0,32.12,0H16.83A13.28,13.28,0,0,0,13,.6H13a13.43,13.43,0,0,0-5.13,3,9.63,9.63,0,0,0-3.16,7.1,10.73,10.73,0,0,0,2.48,6.66l2.27,3H4.87A3.8,3.8,0,0,0,1.2,23.07l-1,3.34,0,0.11L0,26.88v0L0,27v0.5A3.51,3.51,0,0,0,3.57,31H18a19.21,19.21,0,0,0,7.24-1.32A3.51,3.51,0,0,0,28,31h9a3.77,3.77,0,0,0,3.66-2.76l1.72-5.54,2.8,6.16A3.51,3.51,0,0,0,48.48,31H58a3.84,3.84,0,0,0,2.76-1.11A7.88,7.88,0,0,0,65,31H81.9a3.83,3.83,0,0,0,3.69-2.71v0a7.62,7.62,0,0,0,6,2.73h16.95a3.91,3.91,0,0,0,1.27-.21,3.59,3.59,0,0,0,1.23.21h9a3.82,3.82,0,0,0,3.66-2.7l2.5-8,15.82,0h-0.4A3.82,3.82,0,0,0,138,23.05l-1,3.35,0,0.1-0.11.36v0.05l0,0.08v0.5A3.51,3.51,0,0,0,140.36,31h14.41A19.4,19.4,0,0,0,162,29.72,3.5,3.5,0,0,0,164.8,31h9a3.75,3.75,0,0,0,3.66-2.76l1.72-5.51v0L182,28.93a3.48,3.48,0,0,0,3.25,2.1h9.56a3.85,3.85,0,0,0,2.77-1.12A7.93,7.93,0,0,0,201.78,31h12.87c3.36,0,6.52-1.62,9.4-4.83,0.46-.51.91-1.05,1.32-1.61a9.29,9.29,0,0,0,1.77,3.65,7.64,7.64,0,0,0,6.1,2.79h12.87c3.36,0,6.52-1.63,9.4-4.83l0,0a8,8,0,0,0,1.34,2.16,7.58,7.58,0,0,0,6,2.7h15.72a3.83,3.83,0,0,0,3.67-2.7v0l1-3.2A3.54,3.54,0,0,0,279.92,20.32Z"/><path class="cls-2" d="M17.92,27.84H3.5a0.3,0.3,0,0,1-.35-0.33l0-.14L4.2,24a0.59,0.59,0,0,1,.6-0.47H15.91L9.66,15.42a7.63,7.63,0,0,1-1.8-4.69A6.35,6.35,0,0,1,10,6a10.2,10.2,0,0,1,3.9-2.29,9.86,9.86,0,0,1,2.85-.43H32.06a0.29,0.29,0,0,1,.32.32l0,0.14-1,3.36a0.59,0.59,0,0,1-.6.43H19.54l6.18,8.26A9.72,9.72,0,0,1,28,21.48q0,3.61-4,5.26a16.07,16.07,0,0,1-6.11,1.1"/><path class="cls-2" d="M37,27.84h-9a0.28,0.28,0,0,1-.33-0.32s2.46-8,7.38-23.8a0.58,0.58,0,0,1,.58-0.46h9.06a0.27,0.27,0,0,1,.3.32s-2.46,8-7.38,23.8a0.55,0.55,0,0,1-.57.46"/><path class="cls-2" d="M58,27.84H48.41a0.29,0.29,0,0,1-.3-0.18L42.7,15.76l0-.25,0.93-2.94a0.57,0.57,0,0,1,.28-0.36L57.54,3.36a0.48,0.48,0,0,1,.3-0.1H63.9c0.27,0,.39.09,0.4,0.29a0.69,0.69,0,0,1-.36.55L51.46,12.18q7.11,15,7.11,15.12a0.5,0.5,0,0,1-.6.53"/><path class="cls-2" d="M85.36,16.61a0.55,0.55,0,0,0,.58-0.47C86.66,13.88,87,12.72,87,12.7a0.31,0.31,0,0,0-.33-0.36H74.63a0.57,0.57,0,0,0-.58.46Q73,16.22,73,16.29a0.28,0.28,0,0,0,.3.32H85.36ZM81.84,27.84H64.89a4.41,4.41,0,0,1-3.6-1.61,7.73,7.73,0,0,1-1.4-4.94,18.79,18.79,0,0,1,1-5.73A23.19,23.19,0,0,1,65.51,7q3.3-3.72,7-3.72H89.49a0.28,0.28,0,0,1,.33.32l0,0.15-1,3.36a0.56,0.56,0,0,1-.6.44H76.78a3.38,3.38,0,0,0-2.9,1.67,15.39,15.39,0,0,0-1.65,3.92L71,17a16.92,16.92,0,0,0-1,4.49q0,2.07,1.73,2.07H83.16a0.3,0.3,0,0,1,.35.33l0,0.15-1,3.33a0.61,0.61,0,0,1-.62.47"/><path class="cls-2" d="M112,16.61a0.56,0.56,0,0,0,.58-0.47q1.07-3.4,1.08-3.44a0.3,0.3,0,0,0-.33-0.36H101.31a0.57,0.57,0,0,0-.57.46c-0.7,2.27-1.05,3.44-1.05,3.48a0.28,0.28,0,0,0,.3.32H112Zm-3.53,11.22h-17A4.42,4.42,0,0,1,88,26.22a7.74,7.74,0,0,1-1.4-4.95,18.91,18.91,0,0,1,1-5.73A23.21,23.21,0,0,1,92.2,7q3.3-3.73,7-3.73h16.94a0.29,0.29,0,0,1,.33.32l0,0.14-1,3.36a0.56,0.56,0,0,1-.6.43H103.46a3.39,3.39,0,0,0-2.9,1.67,15.71,15.71,0,0,0-1.65,3.93L97.7,17a16.94,16.94,0,0,0-1,4.49c0,1.38.58,2.07,1.73,2.07h11.39a0.3,0.3,0,0,1,.35.33l0,0.15-1,3.32a0.6,0.6,0,0,1-.62.47"/><path class="cls-2" d="M135.4,16.61h-9.54a0.28,0.28,0,0,1-.33-0.32,0.3,0.3,0,0,1,0-.15l1-3.33a0.57,0.57,0,0,1,.6-0.46h3.23a3.34,3.34,0,0,0,1.88-.61,3.27,3.27,0,0,0,1.38-1.82,3,3,0,0,0,.12-0.78c0-1.08-.63-1.61-1.88-1.61h-5.13L120.6,27.37a0.59,0.59,0,0,1-.6.46h-9a0.3,0.3,0,0,1-.35-0.32s2.46-8,7.38-23.8a0.59,0.59,0,0,1,.6-0.46h21.5a4,4,0,0,1,2.68.86,4.07,4.07,0,0,1,1.3,3.27,9,9,0,0,1-1.8,5.31,8.21,8.21,0,0,1-6.93,3.92"/><path class="cls-2" d="M154.71,27.83H140.3a0.3,0.3,0,0,1-.35-0.32l0-.14L141,24a0.6,0.6,0,0,1,.6-0.48h11.12l-6.26-8.16a7.6,7.6,0,0,1-1.8-4.68A6.36,6.36,0,0,1,146.8,6a10.25,10.25,0,0,1,3.91-2.29,10,10,0,0,1,2.85-.42h15.29a0.29,0.29,0,0,1,.33.33l0,0.14-1,3.36a0.59,0.59,0,0,1-.61.44H156.34l6.19,8.26a9.72,9.72,0,0,1,2.3,5.69q0,3.61-4,5.26a16,16,0,0,1-6.12,1.1"/><path class="cls-2" d="M173.77,27.82h-9a0.28,0.28,0,0,1-.33-0.32s2.46-8,7.38-23.8a0.58,0.58,0,0,1,.58-0.47h9.06a0.28,0.28,0,0,1,.31.32s-2.46,8-7.38,23.8a0.55,0.55,0,0,1-.57.46"/><path class="cls-2" d="M194.76,27.82H185.2a0.29,0.29,0,0,1-.3-0.18l-5.41-11.9,0-.25,0.93-2.94a0.57,0.57,0,0,1,.28-0.36l13.66-8.85a0.49,0.49,0,0,1,.3-0.1h6.06c0.27,0,.4.09,0.4,0.29a0.71,0.71,0,0,1-.36.55l-12.48,8.08q7.11,15,7.11,15.12a0.51,0.51,0,0,1-.6.54"/><path class="cls-2" d="M217.21,9.36a1.64,1.64,0,0,0-1.85-1.86h-2.21a3.23,3.23,0,0,0-2.8,1.75,18.09,18.09,0,0,0-1.57,3.86L207.57,17a17.67,17.67,0,0,0-1,4.6c0,1.31.53,2,1.58,2h2.2c1.17,0,2.19-.72,3.06-2.18A21.34,21.34,0,0,0,215.18,17l1.22-3.89a14.89,14.89,0,0,0,.8-3.75m-2.63,18.46H201.72a4.4,4.4,0,0,1-3.6-1.61,7.65,7.65,0,0,1-1.43-4.94,19.59,19.59,0,0,1,1-5.73A22.58,22.58,0,0,1,202.32,7q3.35-3.73,7-3.73h12.87a4.49,4.49,0,0,1,3.63,1.57,7.37,7.37,0,0,1,1.42,4.88,20.14,20.14,0,0,1-1,5.84,22.47,22.47,0,0,1-4.68,8.53q-3.38,3.76-7,3.76"/><path class="cls-2" d="M248.67,9.35a1.64,1.64,0,0,0-1.85-1.85h-2.2a3.25,3.25,0,0,0-2.8,1.75,18.28,18.28,0,0,0-1.57,3.85L239,17a17.62,17.62,0,0,0-1,4.6c0,1.31.53,2,1.58,2h2.2q1.75,0,3.05-2.17A21.43,21.43,0,0,0,246.65,17l1.22-3.89a14.52,14.52,0,0,0,.8-3.75M246,27.82H233.18a4.41,4.41,0,0,1-3.6-1.61,7.63,7.63,0,0,1-1.43-4.94,19.62,19.62,0,0,1,1-5.73A22.64,22.64,0,0,1,233.78,7c2.24-2.48,4.58-3.72,7-3.72h12.87a4.49,4.49,0,0,1,3.63,1.58,7.37,7.37,0,0,1,1.42,4.87,19.81,19.81,0,0,1-1,5.84,22.38,22.38,0,0,1-4.68,8.53q-3.38,3.76-7,3.76"/><path class="cls-2" d="M278.52,27.81H262.8a4.41,4.41,0,0,1-3.56-1.57,7.09,7.09,0,0,1-1.43-4.77,17.39,17.39,0,0,1,.9-5.27L262.6,3.7a0.6,0.6,0,0,1,.6-0.47h9.54a0.29,0.29,0,0,1,.32.32l0,0.14-4.43,14.24a14.68,14.68,0,0,0-.82,3.79,1.63,1.63,0,0,0,1.87,1.83h10.19a0.29,0.29,0,0,1,.33.32l0,0.15-1,3.32a0.6,0.6,0,0,1-.6.47"/></svg>